<svg xmlns="http://www.w3.org/2000/svg" version="1.1" xmlns:xlink="http://www.w3.org/1999/xlink" xmlns:svgjs="http://svgjs.dev/svgjs" viewBox="0 0 1422 800"><g stroke-width="8.5" stroke="hsl(269, 57%, 33%)" fill="none" stroke-linecap="butt"><line x1="78" y1="0" x2="0" y2="78" opacity="1.00"></line><line x1="156" y1="0" x2="78" y2="78" opacity="1.00"></line><line x1="234" y1="0" x2="156" y2="78" opacity="1.00"></line><line x1="234" y1="0" x2="312" y2="78" opacity="1.00"></line><line x1="312" y1="0" x2="390" y2="78" opacity="1.00"></line><line x1="390" y1="0" x2="468" y2="78" opacity="1.00"></line><line x1="546" y1="0" x2="468" y2="78" opacity="1.00"></line><line x1="546" y1="0" x2="624" y2="78" opacity="1.00"></line><line x1="702" y1="0" x2="624" y2="78" opacity="1.00"></line><line x1="702" y1="0" x2="780" y2="78" opacity="1.00"></line><line x1="780" y1="0" x2="858" y2="78" opacity="1.00"></line><line x1="858" y1="0" x2="936" y2="78" opacity="1.00"></line><line x1="936" y1="0" x2="1014" y2="78" opacity="1.00"></line><line x1="1092" y1="0" x2="1014" y2="78" opacity="1.00"></line><line x1="1092" y1="0" x2="1170" y2="78" opacity="1.00"></line><line x1="1170" y1="0" x2="1248" y2="78" opacity="1.00"></line><line x1="1326" y1="0" x2="1248" y2="78" opacity="1.00"></line><line x1="1404" y1="0" x2="1326" y2="78" opacity="1.00"></line><line x1="1404" y1="0" x2="1482" y2="78" opacity="1.00"></line><line x1="78" y1="78" x2="0" y2="156" opacity="0.91"></line><line x1="156" y1="78" x2="78" y2="156" opacity="0.91"></line><line x1="234" y1="78" x2="156" y2="156" opacity="0.91"></line><line x1="312" y1="78" x2="234" y2="156" opacity="0.91"></line><line x1="390" y1="78" x2="312" y2="156" opacity="0.91"></line><line x1="390" y1="78" x2="468" y2="156" opacity="0.91"></line><line x1="546" y1="78" x2="468" y2="156" opacity="0.91"></line><line x1="546" y1="78" x2="624" y2="156" opacity="0.91"></line><line x1="624" y1="78" x2="702" y2="156" opacity="0.91"></line><line x1="780" y1="78" x2="702" y2="156" opacity="0.91"></line><line x1="858" y1="78" x2="780" y2="156" opacity="0.91"></line><line x1="858" y1="78" x2="936" y2="156" opacity="0.91"></line><line x1="1014" y1="78" x2="936" y2="156" opacity="0.91"></line><line x1="1092" y1="78" x2="1014" y2="156" opacity="0.91"></line><line x1="1092" y1="78" x2="1170" y2="156" opacity="0.91"></line><line x1="1170" y1="78" x2="1248" y2="156" opacity="0.91"></line><line x1="1326" y1="78" x2="1248" y2="156" opacity="0.91"></line><line x1="1326" y1="78" x2="1404" y2="156" opacity="0.91"></line><line x1="1404" y1="78" x2="1482" y2="156" opacity="0.91"></line><line x1="78" y1="156" x2="0" y2="234" opacity="0.81"></line><line x1="78" y1="156" x2="156" y2="234" opacity="0.81"></line><line x1="156" y1="156" x2="234" y2="234" opacity="0.81"></line><line x1="234" y1="156" x2="312" y2="234" opacity="0.81"></line><line x1="312" y1="156" x2="390" y2="234" opacity="0.81"></line><line x1="390" y1="156" x2="468" y2="234" opacity="0.81"></line><line x1="546" y1="156" x2="468" y2="234" opacity="0.81"></line><line x1="624" y1="156" x2="546" y2="234" opacity="0.81"></line><line x1="624" y1="156" x2="702" y2="234" opacity="0.81"></line><line x1="780" y1="156" x2="702" y2="234" opacity="0.81"></line><line x1="780" y1="156" x2="858" y2="234" opacity="0.81"></line><line x1="858" y1="156" x2="936" y2="234" opacity="0.81"></line><line x1="1014" y1="156" x2="936" y2="234" opacity="0.81"></line><line x1="1014" y1="156" x2="1092" y2="234" opacity="0.81"></line><line x1="1170" y1="156" x2="1092" y2="234" opacity="0.81"></line><line x1="1248" y1="156" x2="1170" y2="234" opacity="0.81"></line><line x1="1326" y1="156" x2="1248" y2="234" opacity="0.81"></line><line x1="1404" y1="156" x2="1326" y2="234" opacity="0.81"></line><line x1="1404" y1="156" x2="1482" y2="234" opacity="0.81"></line><line x1="0" y1="234" x2="78" y2="312" opacity="0.72"></line><line x1="78" y1="234" x2="156" y2="312" opacity="0.72"></line><line x1="156" y1="234" x2="234" y2="312" opacity="0.72"></line><line x1="234" y1="234" x2="312" y2="312" opacity="0.72"></line><line x1="312" y1="234" x2="390" y2="312" opacity="0.72"></line><line x1="468" y1="234" x2="390" y2="312" opacity="0.72"></line><line x1="468" y1="234" x2="546" y2="312" opacity="0.72"></line><line x1="624" y1="234" x2="546" y2="312" opacity="0.72"></line><line x1="702" y1="234" x2="624" y2="312" opacity="0.72"></line><line x1="780" y1="234" x2="702" y2="312" opacity="0.72"></line><line x1="780" y1="234" x2="858" y2="312" opacity="0.72"></line><line x1="858" y1="234" x2="936" y2="312" opacity="0.72"></line><line x1="1014" y1="234" x2="936" y2="312" opacity="0.72"></line><line x1="1092" y1="234" x2="1014" y2="312" opacity="0.72"></line><line x1="1092" y1="234" x2="1170" y2="312" opacity="0.72"></line><line x1="1170" y1="234" x2="1248" y2="312" opacity="0.72"></line><line x1="1326" y1="234" x2="1248" y2="312" opacity="0.72"></line><line x1="1404" y1="234" x2="1326" y2="312" opacity="0.72"></line><line x1="1404" y1="234" x2="1482" y2="312" opacity="0.72"></line><line x1="78" y1="312" x2="0" y2="390" opacity="0.63"></line><line x1="156" y1="312" x2="78" y2="390" opacity="0.63"></line><line x1="234" y1="312" x2="156" y2="390" opacity="0.63"></line><line x1="234" y1="312" x2="312" y2="390" opacity="0.63"></line><line x1="312" y1="312" x2="390" y2="390" opacity="0.63"></line><line x1="468" y1="312" x2="390" y2="390" opacity="0.63"></line><line x1="546" y1="312" x2="468" y2="390" opacity="0.63"></line><line x1="624" y1="312" x2="546" y2="390" opacity="0.63"></line><line x1="624" y1="312" x2="702" y2="390" opacity="0.63"></line><line x1="780" y1="312" x2="702" y2="390" opacity="0.63"></line><line x1="780" y1="312" x2="858" y2="390" opacity="0.63"></line><line x1="858" y1="312" x2="936" y2="390" opacity="0.63"></line><line x1="1014" y1="312" x2="936" y2="390" opacity="0.63"></line><line x1="1014" y1="312" x2="1092" y2="390" opacity="0.63"></line><line x1="1092" y1="312" x2="1170" y2="390" opacity="0.63"></line><line x1="1170" y1="312" x2="1248" y2="390" opacity="0.63"></line><line x1="1326" y1="312" x2="1248" y2="390" opacity="0.63"></line><line x1="1326" y1="312" x2="1404" y2="390" opacity="0.63"></line><line x1="1482" y1="312" x2="1404" y2="390" opacity="0.63"></line><line x1="78" y1="390" x2="0" y2="468" opacity="0.54"></line><line x1="156" y1="390" x2="78" y2="468" opacity="0.54"></line><line x1="234" y1="390" x2="156" y2="468" opacity="0.54"></line><line x1="312" y1="390" x2="234" y2="468" opacity="0.54"></line><line x1="390" y1="390" x2="312" y2="468" opacity="0.54"></line><line x1="468" y1="390" x2="390" y2="468" opacity="0.54"></line><line x1="468" y1="390" x2="546" y2="468" opacity="0.54"></line><line x1="546" y1="390" x2="624" y2="468" opacity="0.54"></line><line x1="624" y1="390" x2="702" y2="468" opacity="0.54"></line><line x1="780" y1="390" x2="702" y2="468" opacity="0.54"></line><line x1="780" y1="390" x2="858" y2="468" opacity="0.54"></line><line x1="858" y1="390" x2="936" y2="468" opacity="0.54"></line><line x1="936" y1="390" x2="1014" y2="468" opacity="0.54"></line><line x1="1014" y1="390" x2="1092" y2="468" opacity="0.54"></line><line x1="1092" y1="390" x2="1170" y2="468" opacity="0.54"></line><line x1="1248" y1="390" x2="1170" y2="468" opacity="0.54"></line><line x1="1248" y1="390" x2="1326" y2="468" opacity="0.54"></line><line x1="1404" y1="390" x2="1326" y2="468" opacity="0.54"></line><line x1="1482" y1="390" x2="1404" y2="468" opacity="0.54"></line><line x1="78" y1="468" x2="0" y2="546" opacity="0.44"></line><line x1="78" y1="468" x2="156" y2="546" opacity="0.44"></line><line x1="234" y1="468" x2="156" y2="546" opacity="0.44"></line><line x1="312" y1="468" x2="234" y2="546" opacity="0.44"></line><line x1="390" y1="468" x2="312" y2="546" opacity="0.44"></line><line x1="390" y1="468" x2="468" y2="546" opacity="0.44"></line><line x1="546" y1="468" x2="468" y2="546" opacity="0.44"></line><line x1="624" y1="468" x2="546" y2="546" opacity="0.44"></line><line x1="702" y1="468" x2="624" y2="546" opacity="0.44"></line><line x1="702" y1="468" x2="780" y2="546" opacity="0.44"></line><line x1="858" y1="468" x2="780" y2="546" opacity="0.44"></line><line x1="858" y1="468" x2="936" y2="546" opacity="0.44"></line><line x1="936" y1="468" x2="1014" y2="546" opacity="0.44"></line><line x1="1014" y1="468" x2="1092" y2="546" opacity="0.44"></line><line x1="1092" y1="468" x2="1170" y2="546" opacity="0.44"></line><line x1="1170" y1="468" x2="1248" y2="546" opacity="0.44"></line><line x1="1326" y1="468" x2="1248" y2="546" opacity="0.44"></line><line x1="1326" y1="468" x2="1404" y2="546" opacity="0.44"></line><line x1="1404" y1="468" x2="1482" y2="546" opacity="0.44"></line><line x1="78" y1="546" x2="0" y2="624" opacity="0.35"></line><line x1="78" y1="546" x2="156" y2="624" opacity="0.35"></line><line x1="234" y1="546" x2="156" y2="624" opacity="0.35"></line><line x1="312" y1="546" x2="234" y2="624" opacity="0.35"></line><line x1="312" y1="546" x2="390" y2="624" opacity="0.35"></line><line x1="390" y1="546" x2="468" y2="624" opacity="0.35"></line><line x1="546" y1="546" x2="468" y2="624" opacity="0.35"></line><line x1="546" y1="546" x2="624" y2="624" opacity="0.35"></line><line x1="702" y1="546" x2="624" y2="624" opacity="0.35"></line><line x1="702" y1="546" x2="780" y2="624" opacity="0.35"></line><line x1="858" y1="546" x2="780" y2="624" opacity="0.35"></line><line x1="858" y1="546" x2="936" y2="624" opacity="0.35"></line><line x1="936" y1="546" x2="1014" y2="624" opacity="0.35"></line><line x1="1092" y1="546" x2="1014" y2="624" opacity="0.35"></line><line x1="1170" y1="546" x2="1092" y2="624" opacity="0.35"></line><line x1="1170" y1="546" x2="1248" y2="624" opacity="0.35"></line><line x1="1248" y1="546" x2="1326" y2="624" opacity="0.35"></line><line x1="1326" y1="546" x2="1404" y2="624" opacity="0.35"></line><line x1="1404" y1="546" x2="1482" y2="624" opacity="0.35"></line><line x1="0" y1="624" x2="78" y2="702" opacity="0.26"></line><line x1="156" y1="624" x2="78" y2="702" opacity="0.26"></line><line x1="234" y1="624" x2="156" y2="702" opacity="0.26"></line><line x1="312" y1="624" x2="234" y2="702" opacity="0.26"></line><line x1="390" y1="624" x2="312" y2="702" opacity="0.26"></line><line x1="468" y1="624" x2="390" y2="702" opacity="0.26"></line><line x1="468" y1="624" x2="546" y2="702" opacity="0.26"></line><line x1="546" y1="624" x2="624" y2="702" opacity="0.26"></line><line x1="624" y1="624" x2="702" y2="702" opacity="0.26"></line><line x1="780" y1="624" x2="702" y2="702" opacity="0.26"></line><line x1="858" y1="624" x2="780" y2="702" opacity="0.26"></line><line x1="858" y1="624" x2="936" y2="702" opacity="0.26"></line><line x1="1014" y1="624" x2="936" y2="702" opacity="0.26"></line><line x1="1092" y1="624" x2="1014" y2="702" opacity="0.26"></line><line x1="1092" y1="624" x2="1170" y2="702" opacity="0.26"></line><line x1="1170" y1="624" x2="1248" y2="702" opacity="0.26"></line><line x1="1326" y1="624" x2="1248" y2="702" opacity="0.26"></line><line x1="1326" y1="624" x2="1404" y2="702" opacity="0.26"></line><line x1="1404" y1="624" x2="1482" y2="702" opacity="0.26"></line><line x1="78" y1="702" x2="0" y2="780" opacity="0.17"></line><line x1="78" y1="702" x2="156" y2="780" opacity="0.17"></line><line x1="234" y1="702" x2="156" y2="780" opacity="0.17"></line><line x1="234" y1="702" x2="312" y2="780" opacity="0.17"></line><line x1="390" y1="702" x2="312" y2="780" opacity="0.17"></line><line x1="468" y1="702" x2="390" y2="780" opacity="0.17"></line><line x1="546" y1="702" x2="468" y2="780" opacity="0.17"></line><line x1="624" y1="702" x2="546" y2="780" opacity="0.17"></line><line x1="624" y1="702" x2="702" y2="780" opacity="0.17"></line><line x1="702" y1="702" x2="780" y2="780" opacity="0.17"></line><line x1="780" y1="702" x2="858" y2="780" opacity="0.17"></line><line x1="936" y1="702" x2="858" y2="780" opacity="0.17"></line><line x1="936" y1="702" x2="1014" y2="780" opacity="0.17"></line><line x1="1092" y1="702" x2="1014" y2="780" opacity="0.17"></line><line x1="1170" y1="702" x2="1092" y2="780" opacity="0.17"></line><line x1="1248" y1="702" x2="1170" y2="780" opacity="0.17"></line><line x1="1326" y1="702" x2="1248" y2="780" opacity="0.17"></line><line x1="1326" y1="702" x2="1404" y2="780" opacity="0.17"></line><line x1="1404" y1="702" x2="1482" y2="780" opacity="0.17"></line><line x1="0" y1="780" x2="78" y2="858" opacity="0.07"></line><line x1="156" y1="780" x2="78" y2="858" opacity="0.07"></line><line x1="156" y1="780" x2="234" y2="858" opacity="0.07"></line><line x1="312" y1="780" x2="234" y2="858" opacity="0.07"></line><line x1="312" y1="780" x2="390" y2="858" opacity="0.07"></line><line x1="390" y1="780" x2="468" y2="858" opacity="0.07"></line><line x1="468" y1="780" x2="546" y2="858" opacity="0.07"></line><line x1="624" y1="780" x2="546" y2="858" opacity="0.07"></line><line x1="624" y1="780" x2="702" y2="858" opacity="0.07"></line><line x1="702" y1="780" x2="780" y2="858" opacity="0.07"></line><line x1="780" y1="780" x2="858" y2="858" opacity="0.07"></line><line x1="858" y1="780" x2="936" y2="858" opacity="0.07"></line><line x1="1014" y1="780" x2="936" y2="858" opacity="0.07"></line><line x1="1092" y1="780" x2="1014" y2="858" opacity="0.07"></line><line x1="1170" y1="780" x2="1092" y2="858" opacity="0.07"></line><line x1="1248" y1="780" x2="1170" y2="858" opacity="0.07"></line><line x1="1248" y1="780" x2="1326" y2="858" opacity="0.07"></line><line x1="1404" y1="780" x2="1326" y2="858" opacity="0.07"></line><line x1="1404" y1="780" x2="1482" y2="858" opacity="0.07"></line></g></svg>